Coordinates
version=1
nRows=34
nColumns=38
inDegrees=no

Units are S.I. units (second, meters, Newtons, ...)
If the header above contains a line with 'inDegrees', this indicates whether rotational values are in degrees (yes) or radians (no).

endheader
time	pelvis_tilt	pelvis_list	pelvis_rotation	pelvis_tx	pelvis_ty	pelvis_tz	hip_flexion_r	hip_adduction_r	hip_rotation_r	knee_angle_r	ankle_angle_r	subtalar_angle_r	mtp_angle_r	hip_flexion_l	hip_adduction_l	hip_rotation_l	knee_angle_l	ankle_angle_l	subtalar_angle_l	mtp_angle_l	lumbar_extension	lumbar_bending	lumbar_rotation	arm_flex_r	arm_add_r	arm_rot_r	elbow_flex_r	pro_sup_r	wrist_flex_r	wrist_dev_r	arm_flex_l	arm_add_l	arm_rot_l	elbow_flex_l	pro_sup_l	wrist_flex_l	wrist_dev_l
20	0.517887	1.54498	-1.95861	0.765778	-0.379929	1.07122	-0.0437701	0.0129858	-0.0696607	0.126412	-0.278678	0	0	0.0700291	-0.161046	-0.471288	0.520832	-0.231905	0	0	-0.14593	0.025258	0.632287	-0.746641	-0.467436	-0.202938	1.49074	0.874511	0	0	0.577486	-0.289471	1.32733	0.93754	1.04812	0	0
20.01	0.529894	1.54542	-1.97056	0.766421	-0.380413	1.07115	-0.0425574	0.0122145	-0.0691059	0.129214	-0.276517	0	0	0.0698046	-0.159962	-0.47039	0.520206	-0.230842	0	0	-0.142016	0.0221658	0.624743	-0.733494	-0.479359	-0.200217	1.48884	0.865889	0	0	0.588967	-0.29022	1.3358	0.941052	1.03307	0	0
20.02	0.561525	1.54641	-2.00144	0.767118	-0.381027	1.07101	-0.0415722	0.0113702	-0.0695332	0.130149	-0.275959	0	0	0.0704837	-0.15885	-0.469353	0.519986	-0.230402	0	0	-0.141403	0.0239219	0.637947	-0.7443	-0.476206	-0.223412	1.49684	0.862291	0	0	0.589721	-0.264644	1.31664	0.920226	1.03174	0	0
20.03	0.554403	1.54595	-1.99372	0.76779	-0.381525	1.07099	-0.0420999	0.0108005	-0.0696696	0.131953	-0.273737	0	0	0.0693945	-0.158305	-0.469328	0.520086	-0.22942	0	0	-0.147513	0.0170355	0.628582	-0.729426	-0.489548	-0.222174	1.4986	0.852932	0	0	0.609251	-0.273036	1.3327	0.937885	1.01647	0	0
20.04	0.596727	1.54769	-2.03515	0.768548	-0.382258	1.0708	-0.0402999	0.0100589	-0.0702189	0.132928	-0.272993	0	0	0.070709	-0.157435	-0.468675	0.519659	-0.229092	0	0	-0.13981	0.0210142	0.641427	-0.738414	-0.489079	-0.239347	1.50084	0.848746	0	0	0.604747	-0.2413	1.30849	0.904392	1.01889	0	0
20.05	0.689175	1.55078	-2.12715	0.769277	-0.383066	1.07046	-0.0363736	0.00919365	-0.0699739	0.134737	-0.271403	0	0	0.073706	-0.156587	-0.468656	0.519398	-0.228465	0	0	-0.116721	0.0236304	0.638048	-0.724606	-0.504912	-0.223255	1.48439	0.833135	0	0	0.607176	-0.224803	1.31495	0.874651	1.0045	0	0
20.06	0.64259	1.54935	-2.07982	0.769998	-0.383571	1.07046	-0.0386597	0.00867601	-0.0709372	0.13551	-0.270313	0	0	0.0713814	-0.156627	-0.469897	0.520255	-0.227693	0	0	-0.130285	0.0277036	0.65901	-0.748119	-0.496276	-0.266045	1.5053	0.833787	0	0	0.617274	-0.188629	1.30435	0.84632	1.00944	0	0
20.07	0.564952	1.54492	-2.00084	0.770607	-0.384021	1.07063	-0.0451021	0.00782823	-0.0731687	0.134757	-0.268796	0	0	0.0658963	-0.156609	-0.471473	0.521548	-0.226811	0	0	-0.138479	0.0199642	0.647697	-0.728818	-0.515696	-0.256343	1.5022	0.818676	0	0	0.651311	-0.202546	1.35555	0.870747	0.958615	0	0
20.08	0.601991	1.5462	-2.03714	0.771317	-0.384833	1.07033	-0.0441979	0.00697165	-0.0740884	0.135305	-0.267126	0	0	0.0665911	-0.155913	-0.471786	0.521594	-0.226245	0	0	-0.128847	0.0327303	0.670753	-0.752597	-0.51102	-0.285812	1.50979	0.802262	0	0	0.653377	-0.148578	1.35542	0.80287	0.963077	0	0
20.09	0.622656	1.5445	-2.05657	0.771787	-0.385501	1.07011	-0.0463205	0.00548536	-0.0757807	0.135694	-0.2658	0	0	0.0646009	-0.154659	-0.47212	0.522125	-0.22583	0	0	-0.136322	0.0336145	0.666998	-0.749433	-0.52513	-0.293015	1.51934	0.787679	0	0	0.671135	-0.147963	1.37002	0.807753	0.976882	0	0
20.1	2.44798	1.55523	2.39713	0.773105	-0.385249	1.07077	-0.001809	0.00440851	-0.0560589	0.151109	-0.271156	0	0	0.0983364	-0.143092	-0.447323	0.501492	-0.240379	0	0	-0.348955	0.00554491	-0.0911706	0.384739	-0.740587	0.831818	1.41031	0.67	0	0	-0.201425	-0.585067	0.0945737	1.62044	1.36806	0	0
20.11	2.03768	1.54501	2.81082	0.773589	-0.384823	1.07318	-0.00275504	-0.0105095	-0.058871	0.154104	-0.272132	0	0	0.0347537	-0.0563015	-0.243446	0.305967	-0.271786	0	0	-0.355661	-0.00635238	-0.100916	0.41228	-0.731782	0.847205	1.39599	0.658276	0	0	-0.180817	-0.596127	0.103591	1.61508	1.34981	0	0
20.12	2.26384	1.55793	2.58299	0.774862	-0.386172	1.07104	-0.00702033	0.00325372	-0.058082	0.15175	-0.269732	0	0	0.0929506	-0.142286	-0.448239	0.501192	-0.238957	0	0	-0.350976	0.0131183	-0.100162	0.44989	-0.742308	0.885019	1.39555	0.629202	0	0	-0.173207	-0.596344	0.107842	1.61555	1.33389	0	0
20.13	2.1583	1.559	2.68955	0.775751	-0.386614	1.07117	-0.00953493	0.00272207	-0.0590455	0.151798	-0.269649	0	0	0.0906351	-0.141951	-0.448259	0.501124	-0.238693	0	0	-0.351026	0.017343	-0.103551	0.480715	-0.742362	0.910178	1.38703	0.611312	0	0	-0.156939	-0.601499	0.116933	1.60974	1.32012	0	0
20.14	2.06506	1.55982	2.78369	0.776622	-0.386993	1.07128	-0.0113564	0.00223866	-0.0595882	0.152476	-0.269802	0	0	0.0888723	-0.14155	-0.447896	0.501127	-0.238517	0	0	-0.350596	0.021421	-0.106352	0.511005	-0.741627	0.935295	1.37733	0.596823	0	0	-0.139881	-0.606261	0.126951	1.6024	1.30874	0	0
20.15	1.95958	1.56062	2.8901	0.77749	-0.387335	1.07139	-0.013175	0.00177274	-0.0599808	0.15314	-0.270302	0	0	0.0872072	-0.141178	-0.447278	0.50119	-0.238295	0	0	-0.350089	0.0256789	-0.108664	0.54076	-0.740437	0.960275	1.36682	0.583356	0	0	-0.121824	-0.610786	0.138438	1.59355	1.29722	0	0
20.16	1.83461	1.56142	3.0162	0.778381	-0.38774	1.07152	-0.0153573	0.0013718	-0.061088	0.153249	-0.270775	0	0	0.0854269	-0.14102	-0.446804	0.501237	-0.238258	0	0	-0.349423	0.0300166	-0.110751	0.569233	-0.738401	0.98483	1.35524	0.571584	0	0	-0.103159	-0.614781	0.150827	1.58342	1.28572	0	0
20.17	1.70775	1.56215	-3.13874	0.779298	-0.388195	1.07163	-0.0172657	0.00126483	-0.0628877	0.153901	-0.270251	0	0	0.0839448	-0.141073	-0.446503	0.501586	-0.238426	0	0	-0.34845	0.0345358	-0.112774	0.597071	-0.735762	1.00978	1.34283	0.560943	0	0	-0.0842919	-0.618263	0.163874	1.57214	1.27371	0	0
20.18	1.55284	1.56242	-2.98318	0.78015	-0.388608	1.07175	-0.0187236	0.000910673	-0.0637899	0.155704	-0.268302	0	0	0.0822531	-0.140804	-0.446993	0.501857	-0.238638	0	0	-0.347736	0.0383955	-0.114329	0.624957	-0.732249	1.03544	1.32952	0.550698	0	0	-0.0657007	-0.621419	0.176507	1.56055	1.26233	0	0
20.19	1.37554	1.5622	-2.80582	0.780945	-0.38899	1.0719	-0.0203875	0.000239048	-0.064075	0.156964	-0.266504	0	0	0.0800196	-0.140237	-0.447816	0.501853	-0.238286	0	0	-0.347529	0.0417516	-0.115403	0.651979	-0.728113	1.06032	1.31596	0.540548	0	0	-0.0469222	-0.624404	0.188642	1.54918	1.25034	0	0
20.2	1.21685	1.56191	-2.64684	0.781766	-0.389411	1.07203	-0.0224964	-0.000320953	-0.0646562	0.156484	-0.266892	0	0	0.0778634	-0.139919	-0.448539	0.501928	-0.237503	0	0	-0.346627	0.0454053	-0.116857	0.679237	-0.723105	1.08695	1.30113	0.52739	0	0	-0.0280597	-0.627294	0.201264	1.5373	1.23447	0	0
20.21	1.08841	1.56164	-2.51794	0.782603	-0.389851	1.07211	-0.0244208	-0.000786572	-0.0654732	0.155893	-0.267637	0	0	0.0760788	-0.139765	-0.449153	0.502196	-0.236728	0	0	-0.34522	0.0491312	-0.11812	0.705137	-0.71743	1.11278	1.28529	0.516946	0	0	-0.00865839	-0.629742	0.214752	1.52448	1.21975	0	0
20.22	0.994713	1.5614	-2.42388	0.783436	-0.390289	1.07216	-0.0258256	-0.00127811	-0.066073	0.156033	-0.267605	0	0	0.0746522	-0.139554	-0.449743	0.502461	-0.236257	0	0	-0.344217	0.0527165	-0.118368	0.727855	-0.712178	1.13384	1.27012	0.510304	0	0	0.0117746	-0.631156	0.228856	1.51112	1.2086	0	0
20.23	0.923299	1.56127	-2.35219	0.784258	-0.390731	1.07219	-0.0267769	-0.00175082	-0.0664724	0.156788	-0.267228	0	0	0.0735213	-0.139371	-0.450357	0.502736	-0.236057	0	0	-0.343499	0.0560308	-0.118132	0.748601	-0.706935	1.15195	1.25531	0.505299	0	0	0.032443	-0.631901	0.243417	1.49798	1.19954	0	0
20.24	0.848492	1.56101	-2.27713	0.785049	-0.391192	1.0722	-0.0278564	-0.00213617	-0.0670747	0.157517	-0.266873	0	0	0.0721938	-0.139162	-0.450689	0.502787	-0.23599	0	0	-0.342445	0.0593319	-0.117459	0.76877	-0.701805	1.17089	1.2408	0.495838	0	0	0.0539028	-0.632904	0.261628	1.48393	1.18337	0	0
20.25	0.776132	1.5607	-2.20458	0.785813	-0.391674	1.07223	-0.0291963	-0.00245097	-0.0675818	0.157668	-0.267529	0	0	0.070592	-0.138776	-0.450445	0.502127	-0.236784	0	0	-0.342644	0.06202	-0.1168	0.786069	-0.696486	1.1846	1.22761	0.491773	0	0	0.0735204	-0.632641	0.276078	1.47145	1.17455	0	0
20.26	1.25289	1.55036	-2.67894	0.786178	-0.391287	1.0745	-0.0289802	-0.0166733	-0.0697347	0.160182	-0.26969	0	0	0.0114707	-0.053877	-0.25051	0.314606	-0.262992	0	0	-0.348501	0.0496223	-0.120481	0.795602	-0.684496	1.18382	1.20812	0.487686	0	0	0.0995384	-0.63568	0.292941	1.45531	1.16693	0	0
20.27	0.595416	1.55934	-2.024	0.78732	-0.392599	1.07232	-0.0323692	-0.00344653	-0.0685483	0.158572	-0.266557	0	0	0.0667885	-0.139031	-0.452629	0.502964	-0.233708	0	0	-0.34122	0.0690196	-0.116475	0.829428	-0.682338	1.2282	1.19494	0.463975	0	0	0.11175	-0.631021	0.305044	1.44096	1.15421	0	0
20.28	0.533177	1.55873	-1.96192	0.788054	-0.393056	1.07236	-0.0333712	-0.00393025	-0.0691797	0.159908	-0.265577	0	0	0.0650502	-0.138924	-0.453415	0.502966	-0.23319	0	0	-0.341579	0.071803	-0.115943	0.847424	-0.674908	1.24441	1.17866	0.45932	0	0	0.129699	-0.629245	0.316018	1.42657	1.14979	0	0
20.29	0.473545	1.55799	-1.90247	0.788781	-0.393511	1.0724	-0.0346348	-0.00423191	-0.0697026	0.160713	-0.264851	0	0	0.0632134	-0.138897	-0.454307	0.503041	-0.232844	0	0	-0.342246	0.0747005	-0.115195	0.864585	-0.667699	1.25975	1.1629	0.45444	0	0	0.147445	-0.626999	0.326479	1.41202	1.14645	0	0
20.3	0.432785	1.55718	-1.86226	0.789475	-0.393977	1.07243	-0.0357527	-0.0046948	-0.0695065	0.161529	-0.26453	0	0	0.0613013	-0.138678	-0.455522	0.502965	-0.232675	0	0	-0.343447	0.0770323	-0.114173	0.880518	-0.660329	1.27254	1.14738	0.45003	0	0	0.164388	-0.624305	0.335709	1.39855	1.14361	0	0
20.31	0.395158	1.5564	-1.82534	0.79015	-0.394478	1.07245	-0.0368034	-0.00513006	-0.0690482	0.162404	-0.264206	0	0	0.0595877	-0.138653	-0.457397	0.503322	-0.232629	0	0	-0.344338	0.0793386	-0.113358	0.897143	-0.65191	1.28692	1.13047	0.444488	0	0	0.180931	-0.621543	0.345642	1.38479	1.13727	0	0
20.32	0.345988	1.55621	-1.77652	0.79086	-0.395054	1.07243	-0.0375142	-0.00512288	-0.0692031	0.163087	-0.263842	0	0	0.0585527	-0.139074	-0.458722	0.503901	-0.232361	0	0	-0.344563	0.0819042	-0.112716	0.912612	-0.642762	1.30048	1.11242	0.440326	0	0	0.197197	-0.617911	0.354997	1.37017	1.133	0	0
20.33	0.304069	1.55583	-1.73545	0.791537	-0.395565	1.07242	-0.0378689	-0.00537265	-0.0691295	0.164689	-0.26324	0	0	0.057298	-0.139305	-0.460248	0.504439	-0.23191	0	0	-0.345507	0.0842698	-0.111448	0.9271	-0.633728	1.31239	1.09464	0.437219	0	0	0.213711	-0.61362	0.363733	1.35518	1.13033	0	0
